Title                            : I Love You, Man
Year                             : 2009
Genre                            : Comedy | Romance
iMDB URL                         : http://www.imdb.com/title/tt1155056/
Awards                           : 1 nomination

Complete name                    : ILYM-ZEKTORM.avi
Format                           : AVI
File size                        : 701 MiB
Duration                         : 1h 44mn
Overall bit rate                 : 936 Kbps
Subtitles                        : English, Spanish, French (Format: VobSub)
Source                           : DVD NTSC

Video
Format                           : MPEG-4 Visual
Format profile                   : Streaming Video@L1
Codec ID                         : XVID
Codec ID/Hint                    : XviD
Duration                         : 1h 44mn
Bit rate                         : 821 Kbps
Width                            : 720 pixels
Height                           : 416 pixels
Display aspect ratio             : 16/9
Frame rate                       : 23.976 fps
Resolution                       : 24 bits
Colorimetry                      : 4:2:0
Scan type                        : Progressive
Bits/(Pixel*Frame)               : 0.114
Stream size                      : 615 MiB (88%)
Writing library                  : XviD

Audio
Format                           : MPEG Audio
Format version                   : Version 1
Format profile                   : Layer 3
Codec ID                         : 55
Codec ID/Hint                    : MP3
Duration                         : 1h 44mn
Bit rate mode                    : Variable
Bit rate                         : 102 Kbps
Minimum bit rate                 : 128 Kbps
Channel(s)                       : 2 channels
Sampling rate                    : 48.0 KHz
Resolution                       : 16 bits
Stream size                      : 76.1 MiB (11%)
Writing library                  : LAME3.98r
Encoding settings                : ABR
